<?xml version="1.0" encoding="utf-8"?>
<!-- Generator: Adobe Illustrator 16.0.0, SVG Export Plug-In . SVG Version: 6.00 Build 0)  -->
<!DOCTYPE svg PUBLIC "-//W3C//DTD SVG 1.1//EN" "http://www.w3.org/Graphics/SVG/1.1/DTD/svg11.dtd">
<svg version="1.1" id="Layer_1" xmlns="http://www.w3.org/2000/svg" xmlns:xlink="http://www.w3.org/1999/xlink" x="0px" y="0px"
	 width="900px" height="900px" viewBox="0 0 900 900" enable-background="new 0 0 900 900" xml:space="preserve">
<g>
	<path display="none" fill="#FFFFFF" d="M0.899,900.898c0-299.999,0-600,0-899.999c300.299,0,600.599,0,900.897,0
		c0,300,0,600,0,899.999C601.498,900.898,301.199,900.898,0.899,900.898z M510.807,382.696c0.215,0.138,0.43,0.274,0.643,0.413
		c1.192-1.448,2.425-2.866,3.574-4.35c9.033-11.662,19.826-20.809,34.588-24.331c15.892-3.792,31.675,3.699,36.611,17.588
		c3.216,9.04,4.131,18.332,2.479,27.875c-0.562,3.248-0.457,6.611-0.656,9.922c24.127-14.539,41.875-33.456,45.721-61.665
		c3.421-25.081-7.393-45.902-22.59-65.85c5.61-24.943-1.102-46.883-21.371-64.514c-1.139-0.99-1.544-3.043-1.888-4.686
		c-1.132-5.4-1.831-10.898-3.148-16.247c-1.954-7.921-6.75-14.188-12.691-19.27c3.388-6.08,6.837-11.536,9.582-17.327
		c9.868-20.824,14.803-42.214,7.881-65.222c-7.678-25.519-33.286-47.916-59.78-50.309c-24.214-2.187-45.493,4.452-60.964,24.499
		c-9.343,12.105-13.879,26.452-17.683,40.962c-2.106,8.034-4.538,16.272-0.811,24.636c0.302,0.674-0.229,1.908-0.686,2.7
		c-2.726,4.727-7.629,5.88-12.322,7.423c-9.297,3.057-17.182,8.021-21.202,17.381c-1.154,2.688-2.502,3.432-5.282,3.545
		c-13.865,0.564-24.208,7.022-30.741,19.308c-3.862,7.261-5.721,15.118-6.002,23.303c-0.085,2.487-0.843,3.417-3.397,3.421
		c-3.438,0.005-6.91,0.227-10.307,0.749c-12.042,1.851-22.977,5.697-29.734,16.956c-0.681,1.135-2.233,2.082-3.562,2.441
		c-11.396,3.078-17.828,11.359-20.519,21.906c-4.546,17.82-8.417,35.859-11.46,53.993c-1.135,6.76-3.984,11.554-8.952,15.232
		c-4.528,3.354-9.717,5.815-14.633,8.64c-0.961,0.552-2.004,0.96-3.786,1.802c7.093,3.992,13.965,5.861,21.171,6.239
		c3.389,0.178,4.265,1.413,4.247,4.624c-0.086,15.803,1.771,31.41,5.3,46.812c0.874,3.815,1.971,7.58,2.965,11.368
		c0.43-0.037,0.861-0.075,1.291-0.112c0.322-1.544,0.706-3.078,0.958-4.633c3.172-19.625,8.327-38.656,17.166-56.551
		c14.238-28.827,35.485-48.009,68.918-51.535c28.942-3.053,57.85-6.052,87.004-5.149c10.164,0.315,19.86,2.646,28.882,7.471
		c12.354,6.607,19.652,16.821,18.272,30.914c-1.308,13.331-4.335,26.521-7.107,39.667
		C515.356,369.507,512.835,376.05,510.807,382.696z M545.64,720.057c-6.18,0.376-8.414-1.081-11.4-6.253
		c-6.144-10.634-5.902-21.747-1.289-32.45c5.743-13.321,12.634-26.147,18.991-39.207c9.513-19.536,15.625-39.861,14.357-61.912
		c-0.311-5.393,1.767-9.56,6.606-12.336c10.589-6.077,16.272-16.185,20.56-26.918c2.153-5.394,3.057-11.618,3.031-17.462
		c-0.027-7.008-1.309-14.249-7.514-18.987c-9.748-7.446-23.763-4.479-29.047,10.863c-0.521,1.51-0.08,3.35-0.086,5.036
		c1.662-0.303,3.464-0.297,4.961-0.969c3.524-1.583,5.134-0.952,6.072,2.825c1.313,5.283-1.312,10.743-6.589,13.445
		c-6.93,3.549-14.146,3.316-21.453,1.427c-14.094-3.646-25.796-11.763-37.504-19.928c-6.753-4.709-13.597-9.316-20.646-13.561
		c-7.45-4.483-15.635-5.431-23.814-2.412c-6.962,2.568-13.609,2.587-20.504,0.021c-2.48-0.923-5.239-1.294-7.903-1.497
		c-9.786-0.746-17.583,4.124-25.186,9.327c-14.94,10.225-29.015,21.912-46.63,27.6c-7.943,2.563-15.877,2.783-23.575-0.87
		c-4.966-2.356-7.409-6.38-7.023-11.962c0.349-5.047,2.646-6.269,7.032-3.907c1.078,0.58,2.813,1.288,3.532,0.826
		c0.811-0.521,1.184-2.318,1.108-3.521c-0.411-6.585-7.806-14.623-14.572-16.065c-7.936-1.692-15.209,1.54-19.188,8.346
		c-2.565,4.388-1.993,9.095-2.349,13.875c-0.955,12.815,3.493,23.54,11.15,33.222c3.133,3.962,6.735,7.608,10.465,11.025
		c6.496,5.949,7.915,10.819,5.023,19.081c-2.976,8.5-3.534,17.303-2.839,26.178c1.6,20.417,7.348,39.716,16.144,58.143
		c3.572,7.483,4.501,15.361,4.625,23.577c0.191,12.714,0.531,25.465,1.786,38.104c0.525,5.292,2.833,10.771,5.62,15.385
		c3.764,6.232,11.737,7.577,16.324,3.599c1.108-0.961,1.545-2.695,2.291-4.074c-1.232-0.566-2.416-1.454-3.704-1.646
		c-4.971-0.737-7.178-2.915-7.422-7.933c-0.377-7.736,2.851-14.024,8.427-19.052c1.475-1.329,3.948-1.551,5.963-2.281
		c0.559,2.037,1.588,4.07,1.603,6.11c0.132,18.477,2.004,36.466,12.259,52.628c1.386,2.185,1.77,5.393,1.573,8.049
		c-0.125,1.692-1.905,4.124-3.442,4.596c-1.404,0.433-3.511-1.268-5.248-2.146c-0.712-0.361-1.265-1.036-2.415-2.017
		c-1.278,5.411-0.731,9.903,2.901,13.321c4.633,4.361,10.333,4.301,16.055,2.464c4.857-1.56,7.399-5.308,7.516-10.139
		c0.092-3.817-0.358-7.863-1.596-11.453c-3.245-9.43-0.101-17.698,3.852-25.903c0.568-1.18,1.957-1.963,3.815-3.745
		c0.4,2.512,0.812,3.874,0.801,5.232c-0.055,6.597-0.129,13.195-0.366,19.786c-0.49,13.643,2.058,26.213,12.057,36.394
		c1.983,2.02,3.745,4.307,5.329,6.657c4.174,6.2,8.856,12.181,12.112,18.846c4.344,8.894,0.346,14.134-9.381,13.565
		c-0.256-0.015-0.526,0.229-0.786,0.359c1.205,6.969,7.397,10.973,14.301,8.314c3.866-1.486,7.847-4.129,10.334-7.358
		c2.723-3.536,3.784-8.352,5.568-12.606c2.954,2.794,6.306,5.965,9.657,9.138c0.35-0.194,0.698-0.389,1.049-0.582
		c-2.367-15.808,1.832-30.188,8.437-44.275c4.105-8.757,7.088-18.04,10.607-27.075c0.192-0.497,0.685-0.879,1.45-1.824
		c4.29,12.196-1.858,23.001-2.768,34.333c22.693-21.288,33.646-47.285,32.714-78.229C538.508,731.69,545.45,728.241,545.64,720.057z
		"/>
	<path d="M510.807,382.696c2.028-6.646,4.551-13.188,5.979-19.961c2.772-13.146,5.801-26.336,7.107-39.667
		c1.381-14.094-5.92-24.306-18.272-30.915c-9.021-4.825-18.718-7.156-28.882-7.471c-29.154-0.903-58.062,2.096-87.004,5.149
		c-33.433,3.526-54.68,22.708-68.918,51.535c-8.839,17.895-13.994,36.925-17.166,56.551c-0.251,1.555-0.635,3.089-0.958,4.633
		c-0.43,0.037-0.861,0.075-1.291,0.112c-0.995-3.788-2.091-7.552-2.965-11.368c-3.53-15.401-5.386-31.009-5.3-46.812
		c0.018-3.21-0.858-4.445-4.247-4.624c-7.206-0.378-14.078-2.247-21.171-6.239c1.781-0.842,2.825-1.25,3.786-1.802
		c4.916-2.824,10.105-5.286,14.633-8.64c4.968-3.679,7.817-8.474,8.952-15.232c3.043-18.133,6.914-36.172,11.46-53.993
		c2.691-10.547,9.123-18.828,20.519-21.906c1.33-0.359,2.881-1.307,3.562-2.441c6.757-11.258,17.692-15.104,29.734-16.956
		c3.397-0.522,6.869-0.743,10.307-0.749c2.554-0.004,3.312-0.934,3.397-3.421c0.281-8.186,2.14-16.042,6.002-23.303
		c6.533-12.285,16.875-18.743,30.741-19.308c2.779-0.113,4.127-0.857,5.281-3.545c4.021-9.36,11.905-14.324,21.202-17.381
		c4.693-1.543,9.598-2.696,12.322-7.423c0.457-0.792,0.986-2.025,0.686-2.7c-3.728-8.364-1.296-16.603,0.811-24.636
		c3.804-14.51,8.34-28.856,17.683-40.962c15.472-20.047,36.75-26.685,60.964-24.499c26.494,2.393,52.104,24.79,59.78,50.309
		c6.922,23.008,1.987,44.398-7.881,65.222c-2.745,5.791-6.194,11.248-9.582,17.327c5.942,5.082,10.737,11.348,12.691,19.27
		c1.317,5.349,2.018,10.847,3.148,16.247c0.344,1.643,0.749,3.696,1.888,4.686c20.271,17.63,26.981,39.571,21.371,64.514
		c15.197,19.947,26.011,40.769,22.591,65.849c-3.847,28.209-21.595,47.127-45.722,61.665c0.199-3.311,0.094-6.674,0.656-9.921
		c1.652-9.543,0.736-18.835-2.479-27.875c-4.938-13.89-20.722-21.38-36.612-17.588c-14.761,3.522-25.554,12.669-34.588,24.331
		c-1.149,1.483-2.381,2.901-3.574,4.35C511.235,382.971,511.021,382.833,510.807,382.696z"/>
	<path d="M545.64,720.057c-0.188,8.186-7.132,11.635-18.179,9.138c0.932,30.942-10.021,56.94-32.714,78.229
		c0.908-11.332,7.058-22.137,2.767-34.333c-0.766,0.945-1.257,1.327-1.449,1.824c-3.521,9.035-6.503,18.318-10.607,27.075
		c-6.604,14.087-10.804,28.469-8.438,44.274c-0.35,0.194-0.698,0.389-1.048,0.582c-3.353-3.172-6.704-6.343-9.657-9.137
		c-1.784,4.256-2.847,9.07-5.568,12.606c-2.487,3.229-6.469,5.872-10.334,7.358c-6.902,2.657-13.096-1.347-14.303-8.32
		c0.262-0.127,0.531-0.368,0.787-0.354c9.728,0.567,13.726-4.673,9.382-13.566c-3.255-6.664-7.938-12.645-12.112-18.845
		c-1.584-2.352-3.346-4.639-5.329-6.658c-9.999-10.18-12.546-22.751-12.057-36.393c0.235-6.591,0.312-13.19,0.365-19.786
		c0.012-1.359-0.399-2.722-0.8-5.232c-1.859,1.782-3.249,2.565-3.815,3.744c-3.952,8.206-7.098,16.476-3.852,25.904
		c1.237,3.59,1.688,7.636,1.596,11.453c-0.116,4.831-2.658,8.579-7.516,10.139c-5.722,1.836-11.421,1.897-16.055-2.464
		c-3.633-3.418-4.179-7.91-2.901-13.322c1.15,0.98,1.703,1.655,2.415,2.018c1.737,0.88,3.844,2.579,5.248,2.146
		c1.538-0.472,3.317-2.902,3.442-4.596c0.196-2.656-0.188-5.864-1.573-8.049c-10.255-16.162-12.127-34.151-12.259-52.628
		c-0.015-2.04-1.044-4.073-1.603-6.11c-2.015,0.73-4.488,0.952-5.963,2.281c-5.576,5.026-8.804,11.313-8.427,19.052
		c0.245,5.018,2.452,7.194,7.422,7.932c1.288,0.191,2.472,1.078,3.704,1.646c-0.746,1.379-1.183,3.113-2.291,4.074
		c-4.586,3.979-12.56,2.635-16.324-3.6c-2.787-4.613-5.095-10.092-5.62-15.384c-1.254-12.639-1.595-25.39-1.786-38.104
		c-0.124-8.216-1.053-16.095-4.625-23.577c-8.795-18.427-14.544-37.727-16.144-58.144c-0.695-8.875-0.137-17.677,2.839-26.177
		c2.892-8.262,1.473-13.132-5.023-19.081c-3.73-3.417-7.333-7.063-10.465-11.025c-7.657-9.682-12.104-20.405-11.15-33.222
		c0.356-4.781-0.216-9.487,2.349-13.875c3.979-6.806,11.252-10.039,19.188-8.346c6.766,1.442,14.161,9.479,14.572,16.064
		c0.076,1.203-0.298,3.002-1.108,3.522c-0.719,0.462-2.454-0.246-3.532-0.826c-4.386-2.36-6.683-1.14-7.032,3.907
		c-0.386,5.582,2.057,9.604,7.023,11.962c7.698,3.653,15.632,3.434,23.575,0.87c17.615-5.688,31.689-17.375,46.63-27.601
		c7.604-5.202,15.399-10.072,25.186-9.326c2.664,0.202,5.422,0.573,7.903,1.497c6.895,2.565,13.542,2.548,20.504-0.021
		c8.181-3.019,16.364-2.072,23.813,2.412c7.05,4.243,13.894,8.851,20.646,13.56c11.708,8.165,23.41,16.281,37.504,19.929
		c7.307,1.891,14.523,2.122,21.453-1.428c5.277-2.701,7.902-8.162,6.589-13.444c-0.938-3.777-2.548-4.408-6.073-2.825
		c-1.497,0.672-3.298,0.666-4.96,0.969c0.005-1.688-0.435-3.527,0.085-5.036c5.285-15.343,19.3-18.311,29.047-10.864
		c6.205,4.739,7.486,11.98,7.515,18.988c0.023,5.843-0.878,12.068-3.031,17.461c-4.286,10.734-9.971,20.841-20.56,26.918
		c-4.842,2.777-6.917,6.944-6.606,12.336c1.267,22.052-4.846,42.376-14.358,61.913c-6.356,13.06-13.247,25.886-18.99,39.207
		c-4.613,10.703-4.854,21.816,1.289,32.45C537.226,718.976,539.46,720.433,545.64,720.057z M457.943,615.952
		c11.969-2.64,23.775-3.037,29.441-15.657c0.789-1.757,3.877-3.751,5.673-3.554c5.858,0.644,8.583-3.024,10.898-7.01
		c2.543-4.38,4.424-9.146,6.538-13.771c1.493-3.268,0.086-4.133-3.179-4.94c-5.277-1.312-10.786-2.83-15.35-5.64
		c-8.367-5.15-15.995-11.484-24.158-16.991c-7.134-4.811-12.126-11.021-14.7-19.232c-0.467-1.486-1.404-2.825-2.566-5.096
		c-1.056,2.135-1.858,3.356-2.292,4.697c-2.224,6.878-6.008,12.669-11.542,17.352c-3.418,2.893-6.575,6.106-10.099,8.857
		c-9.979,7.791-20.329,14.925-33.471,16.211c-2.729,0.269-3.969,1.558-2.657,4.15c3.088,6.105,6.103,12.278,9.691,18.089
		c1.001,1.621,3.858,2.795,5.933,2.906c4.067,0.219,6.97,1.744,8.651,5.324c5.641,12.008,17.276,11.495,28.453,14.347
		c-0.769-4.014-1.376-7.037-1.925-10.07c-1.359-7.519-2.82-15.021-3.992-22.567c-0.863-5.555,1.321-7.247,6.535-5.153
		c5.094,2.046,10.008,1.447,14.854-0.564c3.691-1.53,5.03,0.203,5.296,3.525c0.105,1.327,0.019,2.708-0.228,4.02
		c-1.42,7.603-2.92,15.189-4.377,22.784C458.933,610.275,458.544,612.593,457.943,615.952z"/>
	<path display="none" fill="#FFFFFF" d="M457.943,615.952c0.601-3.359,0.988-5.677,1.432-7.984
		c1.457-7.595,2.957-15.183,4.377-22.784c0.245-1.312,0.333-2.691,0.229-4.02c-0.267-3.322-1.604-5.057-5.297-3.525
		c-4.847,2.013-9.76,2.61-14.854,0.564c-5.214-2.094-7.398-0.4-6.535,5.153c1.171,7.547,2.633,15.05,3.992,22.567
		c0.548,3.033,1.156,6.058,1.925,10.07c-11.177-2.852-22.812-2.339-28.453-14.347c-1.682-3.58-4.583-5.105-8.651-5.324
		c-2.074-0.111-4.932-1.285-5.933-2.906c-3.588-5.811-6.603-11.981-9.691-18.089c-1.312-2.594-0.072-3.883,2.657-4.15
		c13.142-1.286,23.493-8.42,33.471-16.211c3.522-2.751,6.68-5.966,10.099-8.857c5.533-4.683,9.318-10.474,11.542-17.352
		c0.434-1.341,1.236-2.562,2.292-4.697c1.162,2.271,2.1,3.608,2.566,5.096c2.574,8.212,7.566,14.423,14.7,19.232
		c8.163,5.506,15.791,11.841,24.158,16.991c4.562,2.81,10.071,4.328,15.35,5.64c3.265,0.809,4.672,1.674,3.179,4.94
		c-2.114,4.624-3.995,9.392-6.538,13.771c-2.315,3.984-5.04,7.652-10.898,7.01c-1.796-0.197-4.884,1.797-5.673,3.554
		C481.72,612.915,469.912,613.312,457.943,615.952z"/>
</g>
<path fill="#A05525" d="M457.806,142.505c0,4.577-2.604,8.288-5.821,8.288c-3.219,0-5.822-3.71-5.822-8.288s2.604-8.287,5.822-8.287
	C455.202,134.218,457.806,137.927,457.806,142.505z"/>
<ellipse fill="#A05525" cx="466.485" cy="150.792" rx="8.68" ry="8.05"/>
<ellipse fill="#A05525" cx="487.369" cy="158.325" rx="10.417" ry="9.47"/>
<path fill="#A05525" d="M498.511,164.319c0,5.492,4.734,9.944,10.575,9.944c5.838,0,10.573-4.452,10.573-9.944
	c0-5.489-4.735-9.94-10.573-9.94C503.245,154.379,498.511,158.831,498.511,164.319z"/>
<path fill="#A05525" d="M521.553,168.98c0,5.1,4.452,9.232,9.944,9.232s9.939-4.132,9.939-9.232c0-5.097-4.447-9.229-9.939-9.229
	S521.553,163.884,521.553,168.98z"/>
<path fill="#A05525" d="M543.333,173.475c0,5.057,3.042,9.156,6.789,9.156c3.746,0,6.788-4.099,6.788-9.156
	c0-5.054-3.042-9.153-6.788-9.153C546.375,164.322,543.333,168.421,543.333,173.475z"/>
<ellipse fill="#A05525" cx="566.854" cy="175.132" rx="6.154" ry="9.076"/>
</svg>
